<svg xmlns="http://www.w3.org/2000/svg" viewBox="0 0 123.79 38.52"><defs><style>.cls-1{fill:none;stroke:#775a1f;stroke-miterlimit:10;stroke-width:3px;}.cls-2{fill:#303c42;}.cls-3{fill:#b24399;}.cls-4{fill:#fff;opacity:0.2;isolation:isolate;}</style></defs><title>blloon on the floorAsset 64</title><g id="Layer_2" data-name="Layer 2"><g id="Layer_1-2" data-name="Layer 1"><path class="cls-1" d="M.67,33.55s6-3,14,0,16-1,16-1l22,1h14s14,5,21,3,10-3,10-3h13l13,1"/><g id="Layer_2-2" data-name="Layer 2"><g id="Layer_1-2-2" data-name="Layer 1-2"><path class="cls-2" d="M85.57,32.35A16.58,16.58,0,0,0,75.26.83C67.74,3.28,58.71,12.47,59.7,21.07L56,19.82a1.19,1.19,0,0,0-1.51,1.49l.7,2.15a3.34,3.34,0,0,1-1.8-.27,5.93,5.93,0,0,0-4.53,0,6,6,0,0,0-3.64,2.71,3.58,3.58,0,0,1-2.38,1.75,1.19,1.19,0,1,0,.74,2.25h0a5.88,5.88,0,0,0,3.63-2.71,3.61,3.61,0,0,1,2.39-1.75,3.59,3.59,0,0,1,3,0,5.61,5.61,0,0,0,3.38.33l.76,2.31a1.22,1.22,0,0,0,1,.81,1.17,1.17,0,0,0,1.12-.49L61,25.21C65.34,32.73,78,34.81,85.57,32.35Z"/><polygon class="cls-3" points="57.52 22.83 59.4 23.46 58.26 25.08 57.52 22.83"/><path class="cls-3" d="M62.4,22.48C60.06,15.33,68.06,5.68,76,3.08a14.22,14.22,0,0,1,8.84,27C76.9,32.7,64.73,29.63,62.4,22.48Z"/><path class="cls-4" d="M73.72,7.56a14.2,14.2,0,0,1,18,17.59A14.21,14.21,0,0,0,76,3.08C70.21,5,64.47,10.55,62.62,16.21A23,23,0,0,1,73.72,7.56Z"/></g></g></g></g></svg>