<svg xmlns="http://www.w3.org/2000/svg" viewBox="0 0 24.66 42.28"><defs><style>.cls-1{fill:#303c42;}.cls-2{fill:#b24399;}.cls-3{fill:#fff;opacity:0.2;isolation:isolate;}</style></defs><title>balloonAsset 65</title><g id="Layer_2" data-name="Layer 2"><g id="Layer_1-2" data-name="Layer 1"><g id="Layer_2-2" data-name="Layer 2"><g id="Layer_1-2-2" data-name="Layer 1-2"><path class="cls-1" d="M24.66,12.33A12.33,12.33,0,0,0,0,12.33C0,18.21,4.41,26.71,10.71,28L9,30.3a.88.88,0,0,0,.71,1.41h1.68a2.49,2.49,0,0,1-.61,1.21,4.41,4.41,0,0,0-1.07,3.19,4.42,4.42,0,0,0,1.07,3.2,2.66,2.66,0,0,1,.69,2.09.88.88,0,1,0,1.76,0h0a4.37,4.37,0,0,0-1.08-3.19,2.68,2.68,0,0,1-.69-2.09A2.67,2.67,0,0,1,12.14,34a4.17,4.17,0,0,0,1-2.31H15a.9.9,0,0,0,.79-.49.87.87,0,0,0-.09-.9L13.95,28C20.26,26.71,24.66,18.22,24.66,12.33Z"/><polygon class="cls-2" points="11.45 29.95 12.33 28.77 13.21 29.95 11.45 29.95"/><path class="cls-2" d="M12.33,26.43c-5.59,0-10.57-7.89-10.57-14.1a10.57,10.57,0,0,1,21.14,0C22.91,18.54,17.93,26.43,12.33,26.43Z"/><path class="cls-3" d="M4.4,15A10.56,10.56,0,0,1,21,6.3a10.56,10.56,0,0,0-19.24,6A16.77,16.77,0,0,0,8,24.82,17.13,17.13,0,0,1,4.4,15Z"/></g></g></g></g></svg>