<svg xmlns="http://www.w3.org/2000/svg" viewBox="0 0 49.5 39.6"><defs><style>.cls-1{fill:#515151;}</style></defs><title>cameraAsset 58</title><g id="Layer_2" data-name="Layer 2"><g id="Layer_1-2" data-name="Layer 1"><path class="cls-1" d="M24.75,14.85a7.42,7.42,0,1,0,7.43,7.42,7.43,7.43,0,0,0-7.43-7.42Zm19.8-7.42H38.61a2.2,2.2,0,0,1-2-1.41L35.12,1.41a2.2,2.2,0,0,0-2-1.41H16.33a2.2,2.2,0,0,0-2,1.41L12.84,6a2.2,2.2,0,0,1-2,1.41H4.95A5,5,0,0,0,0,12.37V34.65a5,5,0,0,0,4.95,5h39.6a5,5,0,0,0,4.95-5V12.37a5,5,0,0,0-4.95-4.95ZM24.75,34.65A12.37,12.37,0,1,1,37.12,22.27,12.37,12.37,0,0,1,24.75,34.65ZM42.82,15.84a1.73,1.73,0,1,1,1.73-1.73,1.73,1.73,0,0,1-1.73,1.73Zm0,0"/></g></g></svg>