<svg xmlns="http://www.w3.org/2000/svg" viewBox="0 0 38.97 39"><defs><style>.cls-1{fill:#9ad14b;}.cls-2{fill:#2ba5f7;}.cls-3{fill:#f95428;}.cls-4{fill:#f7b239;}.cls-5{fill:#fff;}</style></defs><title>kiteAsset 59</title><g id="Layer_2" data-name="Layer 2"><g id="Layer_1-2" data-name="Layer 1"><g id="Layer_1-2-2" data-name="Layer 1-2"><polygon class="cls-1" points="28.08 10.08 13.05 24.85 19.81 1.82 19.81 1.82 28.08 10.08"/><polygon class="cls-2" points="37.72 0.81 35.72 2.57 28.45 9.83 20.06 1.06 37.72 0.81"/><polygon class="cls-3" points="37.97 1.18 37.59 18.59 29.08 10.08 37.97 1.18"/><polygon class="cls-4" points="28.81 10.31 37.47 18.97 17.94 24.1 14.06 24.48 28.81 10.31"/><path d="M39,.92c0,.58-.1,1.16-.13,1.74q-.25,5-.48,10L38,19.08c0,.48-.12.59-.66.73l-23.3,5.85a3.9,3.9,0,0,0-2,1.1A19.73,19.73,0,0,0,9.6,29.64L9.4,30c.62.1,1.22.18,1.81.29a6.91,6.91,0,0,1,3.24,1.32,4.18,4.18,0,0,1-1.9,7.36,1,1,0,0,0-.25.07h-1a9,9,0,0,1-1.56-.57,5.5,5.5,0,0,1-2.52-5.71c.11-.59.3-1.17.48-1.81-.85,0-1.7,0-2.54.14-1.5.18-3,.42-4.48.64-.37.06-.62-.07-.68-.37s.12-.53.48-.59A38,38,0,0,1,7.91,30a.53.53,0,0,0,.54-.3,17.12,17.12,0,0,1,3.4-4,2.18,2.18,0,0,0,.64-1.08q3.31-11.76,6.63-23.55c.17-.58.26-.66.87-.67L38.17,0c.35,0,.63,0,.79.38ZM14.49,24.47l0,.07L36.64,19l-8.11-8.15ZM19.82,2.15,13.74,23.73l.08,0,14-13.61ZM37.24,1l-16.69.35,8,8.05Zm-7.9,9,7.78,7.81c.26-5.32.52-10.67.79-16.14ZM11.86,38a3.12,3.12,0,0,0,2.63-1.43,3.2,3.2,0,0,0-1.35-4.73,10.84,10.84,0,0,0-4.13-1,.31.31,0,0,0-.24.16c-1,2.22-1,4.31,1,6.12A3.05,3.05,0,0,0,11.86,38Z"/><path class="cls-5" d="M35.8,12.84a.68.68,0,0,1-.65-.69l.1-2.85a.67.67,0,0,1,1.34,0h0l-.1,2.85A.68.68,0,0,1,35.8,12.84Z"/><circle class="cls-5" cx="36" cy="7.12" r="0.67"/></g></g></g></svg>