<svg xmlns="http://www.w3.org/2000/svg" viewBox="0 0 117.73 39.79"><defs><style>.cls-1{fill:none;stroke:#775a1f;stroke-miterlimit:10;stroke-width:2.85px;}.cls-2{fill:#9ad14b;}.cls-3{fill:#2ba5f7;}.cls-4{fill:#f95428;}.cls-5{fill:#f7b239;}.cls-6{fill:#fff;}</style></defs><title>kite on the floorAsset 60</title><g id="Layer_2" data-name="Layer 2"><g id="Layer_1-2" data-name="Layer 1"><path class="cls-1" d="M.64,35.06a17.68,17.68,0,0,1,13.32,0c7.61,2.85,15.22-1,15.22-1l20.92,1H63.41s13.32,4.76,20,2.85,9.51-2.85,9.51-2.85h12.36l12.36,1"/><g id="Layer_1-2-2" data-name="Layer 1-2"><polygon class="cls-2" points="75.86 17.24 48.04 24.4 71.75 1.85 71.75 1.85 75.86 17.24"/><polygon class="cls-3" points="93.56 12.9 90 13.6 76.47 17.21 72.56 1.13 93.56 12.9"/><polygon class="cls-4" points="93.61 13.5 81.27 33.79 77.04 17.93 93.61 13.5"/><polygon class="cls-5" points="76.56 18.02 80.86 34.14 54.31 26.85 49.48 24.64 76.56 18.02"/><path d="M39.32,26.93A23.34,23.34,0,0,1,46,24.55a3,3,0,0,0,1.49-.84L71.44.47c.6-.57.75-.6,1.48-.2l21.73,12c.41.24.71.49.68,1l-.37.63c-.44.65-.91,1.3-1.34,2q-3.73,5.75-7.42,11.51l-4.74,7.32c-.32.56-.55.62-1.27.41L48.71,26a5.32,5.32,0,0,0-3.07,0c-2.24.64-4.31,1.07-6.15,2.57C38,29.84,36,31.26,33.93,31.26c-2.85,0-1.9-1.9-4.76-1a7.08,7.08,0,0,0-2.11,1c-.2.15-2.64,2.44-2.64.92,0-1,1-1.9,3.8-2.85s3.8-1,4.76,0C34.33,30.7,38,27.62,39.32,26.93Zm-11.08-3.8M50,24.94v.11l29.88,8.56-4-15.15ZM71.53,2.25,49.62,23.55l.06.1,25.82-6.49ZM92.87,12.79,72.94,1.8l4,15ZM77.38,18.06l3.84,14.53,12-18.49Z"/><path class="cls-6" d="M83.08,25.78a.92.92,0,0,1-.29-1.26l2.07-3.3a.91.91,0,0,1,1.55,1h0l-2.06,3.3A.92.92,0,0,1,83.08,25.78Z"/><circle class="cls-6" cx="87.22" cy="19.16" r="0.91" transform="translate(26.92 85.03) rotate(-59.92)"/></g></g></g></svg>