<svg xmlns="http://www.w3.org/2000/svg" viewBox="0 0 55.31 48"><defs><style>.cls-1{fill:#ffb446;}.cls-2{fill:#ffdc64;}.cls-3{fill:#fff;}</style></defs><title>large fireAsset 63</title><g id="Layer_2" data-name="Layer 2"><g id="Layer_1-2" data-name="Layer 1"><g id="Layer_2-2" data-name="Layer 2"><g id="Layer_1-2-2" data-name="Layer 1-2"><path class="cls-1" d="M36.1,36.78a9.36,9.36,0,0,0,9.36,9.36h0a9.36,9.36,0,0,0,9.36-9.36h0c0-5.2-2.6-9.36-.86-13,0,0-2.78.52-4.34,4.68,0,0-5.2-5.2-3-12.48,0,0-5.3,2.06-4.74,8.84.47,5.81-.55,6.76-.55,6.76a8,8,0,0,0-3.66-6.76C38.71,30.54,36.1,32.1,36.1,36.78Z"/><path class="cls-2" d="M52.22,39a7,7,0,0,1-6.88,7.14,6,6,0,0,1-6.1-6.5c.13-1.62,1.38-4.26,3.38-6.92l1.35.81a27.19,27.19,0,0,1,1.51-7.67C46.49,30.47,52.22,31.66,52.22,39Z"/><path class="cls-3" d="M42.86,35.74C42.34,38.86,41.3,40,41.3,42a4.33,4.33,0,0,0,4.16,4.16h0A4.18,4.18,0,0,0,49.62,42h0A17,17,0,0,0,46,31.58a9.25,9.25,0,0,1-1,5.72A5.35,5.35,0,0,0,42.86,35.74Z"/><path d="M54.5,30.9c-.57-2.62-1.06-4.87-.09-6.91a.49.49,0,0,0-.53-.69c-.12,0-2.73.55-4.4,4.25a13.93,13.93,0,0,1-1.74-2.8A11.89,11.89,0,0,1,47,16.12a.49.49,0,0,0-.63-.59,8.2,8.2,0,0,0-2.75,2,9.31,9.31,0,0,0-2.29,7.33,26.69,26.69,0,0,1,.07,4.25,8.48,8.48,0,0,0-1.59-3,8.07,8.07,0,0,0-2-1.74.49.49,0,0,0-.72.51,12.35,12.35,0,0,1-.62,6.95,15,15,0,0,0-.93,4.93,9.85,9.85,0,0,0,19.7,0A27.19,27.19,0,0,0,54.5,30.9Zm-5.4,14a4.61,4.61,0,0,0,1-2.89,17.55,17.55,0,0,0-1.87-7.76,15,15,0,0,0-1.89-3,.49.49,0,0,0-.73.64h0A16.63,16.63,0,0,1,49.14,42a3.68,3.68,0,0,1-3.68,3.67A3.81,3.81,0,0,1,41.81,42a4.83,4.83,0,0,1,.34-1.9.49.49,0,0,0-.9-.34A5.85,5.85,0,0,0,40.81,42a4.64,4.64,0,0,0,1.13,2.95,8.89,8.89,0,0,1-5.35-8.15,13.79,13.79,0,0,1,.89-4.63,13.46,13.46,0,0,0,.83-6.23,7.49,7.49,0,0,1,2.51,5.65.49.49,0,0,0,.82.34c.2-.19,1.18-1.42.71-7.16a8.28,8.28,0,0,1,2-6.54,7.91,7.91,0,0,1,1.5-1.28,13.08,13.08,0,0,0,1,8.21,13.74,13.74,0,0,0,2.43,3.65.49.49,0,0,0,.8-.17,7.3,7.3,0,0,1,3-4c-.55,2-.08,4.19.42,6.46a26.28,26.28,0,0,1,.79,5.68A8.88,8.88,0,0,1,49.09,44.88Z"/><path d="M44.92,36.48a2.92,2.92,0,0,0-2.06-1.21.49.49,0,0,0-.49.48h0a6.52,6.52,0,0,1-.27,1.94.49.49,0,0,0,.33.61h0A.49.49,0,0,0,43,38h0a7.15,7.15,0,0,0,.29-1.57h0a3.47,3.47,0,0,1,1.18,1.17.49.49,0,0,0,.67.14l.08-.06a4.81,4.81,0,0,0,1.07-2.32.48.48,0,0,0-.36-.55.49.49,0,0,0-.58.34A5.31,5.31,0,0,1,44.92,36.48Z"/></g></g><g id="Layer_2-3" data-name="Layer 2"><g id="Layer_1-2-3" data-name="Layer 1-2"><path class="cls-1" d="M.49,36.78a9.36,9.36,0,0,0,9.36,9.36h0a9.36,9.36,0,0,0,9.36-9.36h0c0-5.2-2.6-9.36-.86-13,0,0-2.78.52-4.34,4.68,0,0-5.2-5.2-3-12.48,0,0-5.3,2.06-4.74,8.84.47,5.81-.55,6.76-.55,6.76A8,8,0,0,0,2,24.82C3.1,30.54.49,32.1.49,36.78Z"/><path class="cls-2" d="M16.61,39a7,7,0,0,1-6.88,7.14,6,6,0,0,1-6.1-6.5C3.75,38,5,35.38,7,32.72l1.35.81a27.19,27.19,0,0,1,1.51-7.67C10.87,30.47,16.61,31.66,16.61,39Z"/><path class="cls-3" d="M7.25,35.74C6.73,38.86,5.69,40,5.69,42a4.33,4.33,0,0,0,4.16,4.16h0A4.18,4.18,0,0,0,14,42h0a17,17,0,0,0-3.64-10.36,9.25,9.25,0,0,1-1,5.72A5.35,5.35,0,0,0,7.25,35.74Z"/><path d="M18.88,30.9c-.57-2.62-1.06-4.87-.09-6.91a.49.49,0,0,0-.53-.69c-.12,0-2.73.55-4.4,4.25a13.93,13.93,0,0,1-1.74-2.8,11.89,11.89,0,0,1-.69-8.63.49.49,0,0,0-.63-.59,8.2,8.2,0,0,0-2.75,2,9.31,9.31,0,0,0-2.29,7.33,26.69,26.69,0,0,1,.07,4.25,8.48,8.48,0,0,0-1.59-3,8.07,8.07,0,0,0-2-1.74.49.49,0,0,0-.72.51,12.35,12.35,0,0,1-.62,6.95A15,15,0,0,0,0,36.78a9.85,9.85,0,0,0,19.7,0A27.19,27.19,0,0,0,18.88,30.9Zm-5.4,14a4.61,4.61,0,0,0,1-2.89,17.55,17.55,0,0,0-1.87-7.76,15,15,0,0,0-1.89-3,.49.49,0,0,0-.73.64h0A16.63,16.63,0,0,1,13.52,42a3.68,3.68,0,0,1-3.68,3.67A3.81,3.81,0,0,1,6.19,42a4.83,4.83,0,0,1,.34-1.9.49.49,0,0,0-.9-.34A5.85,5.85,0,0,0,5.2,42a4.64,4.64,0,0,0,1.13,2.95A8.89,8.89,0,0,1,1,36.78a13.79,13.79,0,0,1,.89-4.63,13.46,13.46,0,0,0,.83-6.23A7.49,7.49,0,0,1,5.2,31.58a.49.49,0,0,0,.82.34c.2-.19,1.18-1.42.71-7.16a8.28,8.28,0,0,1,2-6.54,7.91,7.91,0,0,1,1.5-1.28,13.08,13.08,0,0,0,1,8.21,13.74,13.74,0,0,0,2.43,3.65.49.49,0,0,0,.8-.17,7.3,7.3,0,0,1,3-4c-.55,2-.08,4.19.42,6.46a26.28,26.28,0,0,1,.79,5.68A8.88,8.88,0,0,1,13.48,44.88Z"/><path d="M9.31,36.48a2.92,2.92,0,0,0-2.06-1.21.49.49,0,0,0-.49.48h0a6.52,6.52,0,0,1-.27,1.94.49.49,0,0,0,.33.61h0a.49.49,0,0,0,.6-.33h0a7.15,7.15,0,0,0,.29-1.57h0a3.47,3.47,0,0,1,1.18,1.17.49.49,0,0,0,.67.14l.08-.06a4.81,4.81,0,0,0,1.07-2.32.48.48,0,0,0-.36-.55.49.49,0,0,0-.58.34A5.31,5.31,0,0,1,9.31,36.48Z"/></g></g><g id="Layer_2-4" data-name="Layer 2"><g id="Layer_1-2-4" data-name="Layer 1-2"><path class="cls-1" d="M13.47,33A14.51,14.51,0,0,0,28,47.52h0A14.51,14.51,0,0,0,42.51,33h0c0-8.07-4-14.52-1.33-20.16,0,0-4.32.81-6.73,7.26,0,0-8.07-8.06-4.7-19.35,0,0-8.21,3.2-7.35,13.71.74,9-.86,10.48-.86,10.48a12.39,12.39,0,0,0-5.67-10.48C17.52,23.33,13.47,25.75,13.47,33Z"/><path class="cls-2" d="M38.47,36.45c0,6-4.66,11.21-10.67,11.08-5.68-.11-9.91-4.43-9.46-10.08.2-2.52,2.13-6.61,5.24-10.74L25.67,28C25.6,22.86,28,16.07,28,16.07,29.58,23.22,38.47,25.07,38.47,36.45Z"/><path class="cls-3" d="M24,31.39c-.81,4.84-2.42,6.6-2.42,9.68A6.71,6.71,0,0,0,28,47.52h0A6.48,6.48,0,0,0,34.44,41v0A26.43,26.43,0,0,0,28.8,24.94a14.34,14.34,0,0,1-1.6,8.87A8.29,8.29,0,0,0,24,31.39Z"/><path d="M42,23.88c-.89-4.06-1.65-7.56-.14-10.71A.75.75,0,0,0,41,12.1c-.18,0-4.24.85-6.83,6.58a21.59,21.59,0,0,1-2.69-4.35A18.43,18.43,0,0,1,30.45,1a.75.75,0,0,0-1-.92A12.71,12.71,0,0,0,25.2,3.16a14.43,14.43,0,0,0-3.55,11.36,41.38,41.38,0,0,1,.1,6.58,13.15,13.15,0,0,0-2.46-4.61,12.52,12.52,0,0,0-3.06-2.69.76.76,0,0,0-1.12.8,19.16,19.16,0,0,1-1,10.77A23.18,23.18,0,0,0,12.72,33a15.28,15.28,0,0,0,30.55,0A42.16,42.16,0,0,0,42,23.88ZM33.62,45.56a7.15,7.15,0,0,0,1.6-4.49,27.21,27.21,0,0,0-2.9-12,23.32,23.32,0,0,0-2.93-4.59.75.75,0,0,0-1.14,1h0a25.79,25.79,0,0,1,5.43,15.64A5.7,5.7,0,0,1,28,46.77a5.91,5.91,0,0,1-5.67-5.69,7.5,7.5,0,0,1,.53-3,.76.76,0,0,0-1.4-.53,9.07,9.07,0,0,0-.67,3.48,7.19,7.19,0,0,0,1.75,4.57A13.79,13.79,0,0,1,14.23,33a21.38,21.38,0,0,1,1.38-7.18,20.87,20.87,0,0,0,1.28-9.66,11.62,11.62,0,0,1,3.9,8.77.76.76,0,0,0,1.28.53c.31-.29,1.82-2.2,1.09-11.1A12.85,12.85,0,0,1,26.26,4.24a12.27,12.27,0,0,1,2.33-2A20.28,20.28,0,0,0,30.14,15a21.3,21.3,0,0,0,3.76,5.66.75.75,0,0,0,1.24-.27c1.39-3.7,3.38-5.41,4.73-6.18-.85,3.14-.12,6.49.65,10A40.75,40.75,0,0,1,41.75,33,13.77,13.77,0,0,1,33.62,45.56Z"/><path d="M27.15,32.54a4.52,4.52,0,0,0-3.2-1.88.75.75,0,0,0-.76.75h0a10.11,10.11,0,0,1-.42,3,.76.76,0,0,0,.51.94h0a.75.75,0,0,0,.93-.51v0a11.09,11.09,0,0,0,.45-2.44h0a5.38,5.38,0,0,1,1.83,1.81.75.75,0,0,0,1,.22l.12-.1a7.46,7.46,0,0,0,1.66-3.6.75.75,0,0,0-.56-.85.76.76,0,0,0-.9.53A8.24,8.24,0,0,1,27.15,32.54Z"/></g></g></g></g></svg>