<svg xmlns="http://www.w3.org/2000/svg" viewBox="0 0 25.62 40.26"><defs><style>.cls-1{fill:#ffb446;}.cls-2{fill:#ffdc64;}.cls-3{fill:#fff;}</style></defs><title>medium fireAsset 62</title><g id="Layer_2" data-name="Layer 2"><g id="Layer_1-2" data-name="Layer 1"><g id="Layer_2-2" data-name="Layer 2"><g id="Layer_1-2-2" data-name="Layer 1-2"><path class="cls-1" d="M.64,27.68A12.17,12.17,0,0,0,12.81,39.86h0A12.17,12.17,0,0,0,25,27.69h0c0-6.77-3.38-12.18-1.11-16.91,0,0-3.62.68-5.65,6.09,0,0-6.77-6.76-3.94-16.23,0,0-6.89,2.69-6.17,11.5.62,7.56-.72,8.79-.72,8.79a10.39,10.39,0,0,0-4.76-8.79C4,19.57.64,21.59.64,27.68Z"/><path class="cls-2" d="M21.6,30.57c0,5.07-3.91,9.4-9,9.29A7.76,7.76,0,0,1,4.72,31.4c.17-2.11,1.79-5.54,4.39-9l1.75,1.06c-.06-4.28,2-10,2-10C14.14,19.48,21.6,21,21.6,30.57Z"/><path class="cls-3" d="M9.43,26.33c-.68,4.06-2,5.54-2,8.12a5.63,5.63,0,0,0,5.41,5.41h0a5.43,5.43,0,0,0,5.42-5.45v0a22.17,22.17,0,0,0-4.73-13.47,12,12,0,0,1-1.34,7.44A7,7,0,0,0,9.43,26.33Z"/><path d="M24.56,20c-.74-3.4-1.38-6.34-.12-9a.63.63,0,0,0-.69-.9c-.15,0-3.55.72-5.73,5.52A18.11,18.11,0,0,1,15.77,12,15.46,15.46,0,0,1,14.87.81.63.63,0,0,0,14.05,0a10.66,10.66,0,0,0-3.58,2.61,12.11,12.11,0,0,0-3,9.53,34.71,34.71,0,0,1,.09,5.52,11,11,0,0,0-2.06-3.87A10.5,10.5,0,0,0,3,11.57a.64.64,0,0,0-.94.67,16.07,16.07,0,0,1-.8,9A19.44,19.44,0,0,0,0,27.68a12.81,12.81,0,0,0,25.62,0A35.36,35.36,0,0,0,24.56,20Zm-7,18.18a6,6,0,0,0,1.34-3.76,22.82,22.82,0,0,0-2.43-10.09A19.56,19.56,0,0,0,14,20.5a.63.63,0,0,0-1,.83h0a21.63,21.63,0,0,1,4.56,13.12,4.78,4.78,0,0,1-4.78,4.78,5,5,0,0,1-4.75-4.78A6.29,6.29,0,0,1,8.5,32a.64.64,0,0,0-1.18-.45,7.61,7.61,0,0,0-.56,2.92,6,6,0,0,0,1.47,3.83,11.56,11.56,0,0,1-7-10.6,17.93,17.93,0,0,1,1.15-6,17.51,17.51,0,0,0,1.07-8.1,9.75,9.75,0,0,1,3.27,7.35.64.64,0,0,0,1.07.45c.26-.25,1.53-1.84.92-9.31a10.77,10.77,0,0,1,2.61-8.5,10.29,10.29,0,0,1,2-1.67,17,17,0,0,0,1.3,10.68,17.87,17.87,0,0,0,3.16,4.74.63.63,0,0,0,1-.22,9.5,9.5,0,0,1,4-5.18c-.72,2.64-.1,5.45.54,8.4a34.17,34.17,0,0,1,1,7.38A11.55,11.55,0,0,1,17.53,38.21Z"/><path d="M12.11,27.29a3.79,3.79,0,0,0-2.69-1.58.63.63,0,0,0-.64.63h0a8.48,8.48,0,0,1-.35,2.52.64.64,0,0,0,.42.79h0a.63.63,0,0,0,.78-.43v0a9.3,9.3,0,0,0,.38-2h0a4.51,4.51,0,0,1,1.53,1.52.63.63,0,0,0,.87.18l.1-.08a6.26,6.26,0,0,0,1.39-3,.63.63,0,0,0-.47-.72.64.64,0,0,0-.76.45A6.91,6.91,0,0,1,12.11,27.29Z"/></g></g></g></g></svg>