<svg xmlns="http://www.w3.org/2000/svg" viewBox="0 0 19.7 30.95"><defs><style>.cls-1{fill:#ffb446;}.cls-2{fill:#ffdc64;}.cls-3{fill:#fff;}</style></defs><title>small fireAsset 61</title><g id="Layer_2" data-name="Layer 2"><g id="Layer_1-2" data-name="Layer 1"><g id="Layer_2-2" data-name="Layer 2"><g id="Layer_1-2-2" data-name="Layer 1-2"><path class="cls-1" d="M.49,21.29a9.36,9.36,0,0,0,9.36,9.36h0a9.36,9.36,0,0,0,9.36-9.36h0c0-5.2-2.6-9.36-.86-13,0,0-2.78.52-4.34,4.68,0,0-5.2-5.2-3-12.48,0,0-5.3,2.06-4.74,8.84.47,5.81-.55,6.76-.55,6.76A8,8,0,0,0,2,9.32C3.1,15,.49,16.6.49,21.29Z"/><path class="cls-2" d="M16.61,23.5a7,7,0,0,1-6.88,7.14,6,6,0,0,1-6.1-6.5C3.75,22.52,5,19.89,7,17.22L8.35,18a27.19,27.19,0,0,1,1.51-7.67C10.87,15,16.61,16.17,16.61,23.5Z"/><path class="cls-3" d="M7.25,20.24c-.52,3.12-1.56,4.26-1.56,6.25a4.33,4.33,0,0,0,4.16,4.16h0A4.18,4.18,0,0,0,14,26.46h0a17,17,0,0,0-3.64-10.36,9.25,9.25,0,0,1-1,5.72A5.35,5.35,0,0,0,7.25,20.24Z"/><path d="M18.88,15.4c-.57-2.62-1.06-4.87-.09-6.91a.49.49,0,0,0-.53-.69c-.12,0-2.73.55-4.4,4.25a13.93,13.93,0,0,1-1.74-2.8A11.89,11.89,0,0,1,11.43.62.49.49,0,0,0,10.8,0,8.2,8.2,0,0,0,8.05,2,9.31,9.31,0,0,0,5.76,9.36a26.69,26.69,0,0,1,.07,4.25,8.48,8.48,0,0,0-1.59-3,8.07,8.07,0,0,0-2-1.74.49.49,0,0,0-.72.51,12.35,12.35,0,0,1-.62,6.95A15,15,0,0,0,0,21.29a9.85,9.85,0,0,0,19.7,0A27.19,27.19,0,0,0,18.88,15.4Zm-5.4,14a4.61,4.61,0,0,0,1-2.89,17.55,17.55,0,0,0-1.87-7.76,15,15,0,0,0-1.89-3,.49.49,0,0,0-.73.64h0a16.63,16.63,0,0,1,3.5,10.09,3.68,3.68,0,0,1-3.68,3.67,3.81,3.81,0,0,1-3.65-3.67,4.83,4.83,0,0,1,.34-1.9.49.49,0,0,0-.9-.34,5.85,5.85,0,0,0-.43,2.25,4.64,4.64,0,0,0,1.13,2.95A8.89,8.89,0,0,1,1,21.29a13.79,13.79,0,0,1,.89-4.63,13.46,13.46,0,0,0,.83-6.23A7.49,7.49,0,0,1,5.2,16.08a.49.49,0,0,0,.82.34c.2-.19,1.18-1.42.71-7.16a8.28,8.28,0,0,1,2-6.54,7.91,7.91,0,0,1,1.5-1.28,13.08,13.08,0,0,0,1,8.21,13.74,13.74,0,0,0,2.43,3.65.49.49,0,0,0,.8-.17,7.3,7.3,0,0,1,3-4c-.55,2-.08,4.19.42,6.46a26.28,26.28,0,0,1,.79,5.68A8.88,8.88,0,0,1,13.48,29.38Z"/><path d="M9.31,21a2.92,2.92,0,0,0-2.06-1.21.49.49,0,0,0-.49.48h0a6.52,6.52,0,0,1-.27,1.94.49.49,0,0,0,.33.61h0a.49.49,0,0,0,.6-.33h0a7.15,7.15,0,0,0,.29-1.57h0a3.47,3.47,0,0,1,1.18,1.17.49.49,0,0,0,.67.14l.08-.06a4.81,4.81,0,0,0,1.07-2.32.48.48,0,0,0-.36-.55.49.49,0,0,0-.58.34A5.31,5.31,0,0,1,9.31,21Z"/></g></g></g></g></svg>