<svg xmlns="http://www.w3.org/2000/svg" viewBox="0 0 29.53 22.79"><defs><style>.cls-1{fill:#037c6d;}</style></defs><title>ya logo headerAsset 41</title><g id="Layer_2" data-name="Layer 2"><g id="Layer_1-2" data-name="Layer 1"><path class="cls-1" d="M1,.15A2.23,2.23,0,0,0,.7.71,5.46,5.46,0,0,0,0,3.28,6.19,6.19,0,0,0,.89,6c1.46,2.69,3.31,5,4.82,7.63A16,16,0,0,1,2,17.51,4.89,4.89,0,0,0,.67,18.72c-.55.84.15,2.19.28,3.19a1,1,0,0,0,.22.6c.26.27.71.16,1.06,0,3.29-1.29,5.42-4.05,7.46-6.94A42.73,42.73,0,0,0,14.4,6.12a22.65,22.65,0,0,0,1.12-3.55A2.12,2.12,0,0,0,15.28.72a1.82,1.82,0,0,0-1.22-.5,4.36,4.36,0,0,0-2.29.42,2.12,2.12,0,0,0-.71.51,2.2,2.2,0,0,0-.4.83,15.85,15.85,0,0,0-.37,2.34A14.2,14.2,0,0,1,8.46,9.62a22.79,22.79,0,0,0-2-2.71A55.39,55.39,0,0,1,3.12,1.76a5.41,5.41,0,0,0-.8-1.2C2.11.35,1.66,0,1.33,0A.5.5,0,0,0,1,.15Z"/><path class="cls-1" d="M29.47,20.84,29,19.09s-.79-5.31-2.41-11.94c-.4-1.64-1.29-4.92-2.89-5.85A6.28,6.28,0,0,0,22.33.88a6,6,0,0,0-1-.29c-.83-.1-1.58,1-2.07,1.59a14.74,14.74,0,0,0-2.27,3l-.08.19c-1.07,2.56-1.11,5.37-1.86,8q-.68,2.43-1.35,4.86a22.66,22.66,0,0,0-.94,3.15.47.47,0,0,0,0,.28.3.3,0,0,0,.21.09c1.32.23,1.93.8,3.27,1s1.69-2.87,1.85-3.42a42.4,42.4,0,0,0,.53-4.49c.42-.66,1.73-.61,2.47-.88a1.08,1.08,0,0,1,0-.21,1.08,1.08,0,0,1,.26-.79.61.61,0,0,0,.15-.3h-.41a.22.22,0,0,1-.17-.35l.42-.57c-1.55-.32-2.64-2.41-2.64-3.85a3,3,0,0,1,6.08,0h0c0,1.46-1.09,3.53-2.64,3.85l.42.57a.22.22,0,0,1,0,.23.22.22,0,0,1-.2.12H22a1,1,0,0,1-.25.57.66.66,0,0,0-.17.52.66.66,0,0,0,0,.07l.11,0c.66-.08,2.14,1.38,2.64,1.81.32.27.25,2.95.25,2.95s-.38,2.7.5,2.63a3.59,3.59,0,0,1,1.5.18C30.2,22.6,29.47,20.84,29.47,20.84Z"/></g></g></svg>