<svg xmlns="https://www.w3.org/2000/svg" viewBox="0 0 128 128"><defs><style>.cls-1{fill:#037c6d;}.cls-2{fill:none;stroke:#9e9e9e;stroke-linecap:round;stroke-miterlimit:10;stroke-width:4.47px;}</style></defs><title>logoAsset 6</title><g id="Layer_2" data-name="Layer 2"><g id="Layer_1-2" data-name="Layer 1"><path class="cls-1" d="M84.78,149.45s8.78.79,9.63,3.35,4.12.12,4.12.12a16.14,16.14,0,0,1,3.77-9.27c23-25.91,37.48-68.69,27.16-98.74h0A66.53,66.53,0,0,0,3.62,88.16c10.32,30.05,47.72,65.66,82.11,61.18M39.49,39.82a37.85,37.85,0,0,0-8.91,39.07,4.75,4.75,0,0,1-9,3.09A47.3,47.3,0,0,1,32.73,33.15a4.75,4.75,0,1,1,6.76,6.67Z"/><path class="cls-2" d="M97.82,153.44s-8.95,4.47-8.95,17.88c0,10.13,11.17,12,18.23,16a112,112,0,0,1,16.65,11.58c13.48,11.29,25.39,27.38,22.42,45.92a42.4,42.4,0,0,1-3.63,11.46"/><path class="cls-1" d="M97.69,154.54c.08-.15,5.19.88,5.71.93,3.93.38,7.89.54,11.83.82a8.34,8.34,0,0,1,3.17.63,3.86,3.86,0,0,1,1.49,5.14c-1.16,2.39-4.39,3.26-6.75,3.72a22,22,0,0,0-7.69,2.81c-2.66,1.7-3.59,4.26-7,4.8-2.82.44-4.76-.75-4.91-3.76C93.15,162.57,97.68,154.56,97.69,154.54Z"/><path class="cls-2" d="M91.73,154.6s4.44.52,9.41-3.39"/></g></g></svg>
