<svg xmlns="http://www.w3.org/2000/svg" viewBox="0 0 48.2 39.4"><defs><style>.cls-1{fill:#fff;stroke:#191919;stroke-miterlimit:10;stroke-width:0.2px;}</style></defs><title>Asset 9</title><g id="Layer_2" data-name="Layer 2"><g id="Layer_1-2" data-name="Layer 1"><path class="cls-1" d="M44.26,8.1H37.44l-3.2-8H14l-3.2,8H9.7v-4H4.9v4h-1A3.84,3.84,0,0,0,.1,11.94V35.43A3.87,3.87,0,0,0,4,39.3H44.23a3.87,3.87,0,0,0,3.87-3.87V11.94A3.84,3.84,0,0,0,44.26,8.1ZM6.5,5.7H8.1V8.1H6.5Zm40,29.73a2.27,2.27,0,0,1-2.27,2.27H4A2.27,2.27,0,0,1,1.7,35.43V11.94A2.24,2.24,0,0,1,3.94,9.7h7.9l3.2-8H33.16l3.2,8h7.9a2.24,2.24,0,0,1,2.24,2.24Z"/><path class="cls-1" d="M24.1,7.3A14.4,14.4,0,1,0,38.5,21.7,14.42,14.42,0,0,0,24.1,7.3Zm0,27.2A12.8,12.8,0,1,1,36.9,21.7,12.81,12.81,0,0,1,24.1,34.5Z"/><path class="cls-1" d="M24.1,12.1a9.6,9.6,0,1,0,9.6,9.6,9.61,9.61,0,0,0-9.6-9.6Zm0,17.6a8,8,0,1,1,8-8,8,8,0,0,1-8,8Z"/><path class="cls-1" d="M41.7,11.3a3.2,3.2,0,1,0,3.2,3.2,3.21,3.21,0,0,0-3.2-3.2Zm0,4.8a1.6,1.6,0,1,1,1.6-1.6,1.6,1.6,0,0,1-1.6,1.6Z"/></g></g></svg>