<svg xmlns="http://www.w3.org/2000/svg" viewBox="0 0 81.94 82"><defs><style>.cls-1{fill:#9ad14b;}.cls-2{fill:#2ba5f7;}.cls-3{fill:#f95428;}.cls-4{fill:#f7b239;}.cls-5{fill:#fff;}</style></defs><title>Asset 19</title><g id="Layer_2" data-name="Layer 2"><g id="Layer_1-2" data-name="Layer 1"><polygon class="cls-1" points="59.04 21.19 27.45 52.25 41.66 3.82 41.66 3.82 59.04 21.19"/><polygon class="cls-2" points="79.31 1.71 75.1 5.4 59.83 20.67 42.19 2.24 79.31 1.71"/><polygon class="cls-3" points="79.84 2.47 79.05 39.09 61.15 21.19 79.84 2.47"/><polygon class="cls-4" points="60.58 21.68 78.78 39.88 37.72 50.67 29.56 51.46 60.58 21.68"/><path d="M81.94,1.93c-.09,1.21-.21,2.43-.27,3.65q-.53,10.55-1,21.1L80,40.11c0,1-.26,1.25-1.38,1.53q-24.48,6.16-49,12.29a8.2,8.2,0,0,0-4.13,2.32,41.49,41.49,0,0,0-5.3,6.08c-.13.2-.25.4-.43.67,1.31.21,2.56.37,3.8.6a14.52,14.52,0,0,1,6.81,2.78,8.79,8.79,0,0,1-4,15.47c-.18,0-.35.1-.53.15H23.81a18.84,18.84,0,0,1-3.28-1.2,11.56,11.56,0,0,1-5.3-12c.24-1.24.64-2.46,1-3.81-1.79.09-3.58.09-5.34.3-3.15.38-6.28.89-9.42,1.34-.78.12-1.31-.15-1.44-.77s.25-1.11,1-1.25A79.81,79.81,0,0,1,16.63,63a1.11,1.11,0,0,0,1.13-.63A36,36,0,0,1,24.9,54a4.58,4.58,0,0,0,1.34-2.27Q33.19,27,40.18,2.22C40.54,1,40.72.83,42,.81Q61.15.41,80.27,0C81,0,81.6.1,81.94.8ZM30.48,51.46l.08.15L77.05,39.93,60,22.8ZM41.67,4.53Q35.27,27.27,28.89,49.89l.16.09L58.49,21.36ZM78.3,2.1l-35.09.74L60.13,19.77Zm-16.6,19L78.06,37.52c.55-11.18,1.1-22.44,1.67-33.93ZM24.94,79.94a6.56,6.56,0,0,0,5.52-3A6.72,6.72,0,0,0,27.63,67a22.79,22.79,0,0,0-8.68-2,.66.66,0,0,0-.51.34c-2.15,4.66-2,9.07,2,12.86A6.42,6.42,0,0,0,24.94,79.94Z"/><path class="cls-5" d="M75.28,27a1.42,1.42,0,0,1-1.37-1.46l.21-6a1.41,1.41,0,1,1,2.82.1l-.2,6A1.42,1.42,0,0,1,75.28,27Z"/><circle class="cls-5" cx="75.69" cy="14.97" r="1.41"/></g></g></svg>