<svg xmlns="http://www.w3.org/2000/svg" viewBox="0 0 57.25 90.5"><defs><style>.cls-1{fill:#ffb446;}.cls-2{fill:#ffdc64;}.cls-3{fill:#fff;}</style></defs><title>Asset 17</title><g id="Layer_2" data-name="Layer 2"><g id="Layer_1-2" data-name="Layer 1"><path class="cls-1" d="M1.42,61.88a27.2,27.2,0,0,0,27.2,27.2h0a27.2,27.2,0,0,0,27.21-27.2c0-15.12-7.56-27.21-2.49-37.79,0,0-8.09,1.51-12.62,13.6,0,0-15.12-15.11-8.8-36.27,0,0-15.39,6-13.78,25.69C19.52,44,16.53,46.76,16.53,46.76A23.22,23.22,0,0,0,5.9,27.11C9,43.74,1.42,48.27,1.42,61.88Z"/><path class="cls-2" d="M48.26,68.32c0,11.32-8.74,21-20,20.76-10.65-.21-18.57-8.31-17.72-18.89.37-4.72,4-12.38,9.82-20.12l3.91,2.36c-.13-9.57,4.4-22.29,4.4-22.29C31.6,43.54,48.26,47,48.26,68.32Z"/><path class="cls-3" d="M21.07,58.85C19.55,67.92,16.53,71.22,16.53,77,16.53,83,22,89.08,28.62,89.08h0a12.14,12.14,0,0,0,12.1-12.22,49.53,49.53,0,0,0-10.58-30.1,26.88,26.88,0,0,1-3,16.63C25.22,60.55,21.07,58.85,21.07,58.85Z"/><path d="M54.88,44.77c-1.66-7.6-3.09-14.16-.26-20.07a1.41,1.41,0,0,0-1.54-2c-.34.06-7.94,1.6-12.8,12.34a40.47,40.47,0,0,1-5.05-8.15,34.54,34.54,0,0,1-2-25.07A1.41,1.41,0,0,0,31.4.1a23.82,23.82,0,0,0-8,5.84c-3.52,3.83-7.52,10.63-6.65,21.29a77.55,77.55,0,0,1,.19,12.34,24.65,24.65,0,0,0-4.61-8.64A23.46,23.46,0,0,0,6.6,25.88a1.42,1.42,0,0,0-2.1,1.49c1.73,9.31,0,14.59-1.79,20.19C1.38,51.69,0,56,0,61.88a28.63,28.63,0,0,0,57.25,0C57.25,55.67,56,49.88,54.88,44.77ZM39.18,85.4a13.4,13.4,0,0,0,3-8.41,51,51,0,0,0-5.44-22.55,43.7,43.7,0,0,0-5.49-8.61,1.41,1.41,0,0,0-2.13,1.86A48.33,48.33,0,0,1,39.3,77,10.69,10.69,0,0,1,28.62,87.67C22.51,87.67,18,82,18,77A14.05,14.05,0,0,1,19,71.47a1.42,1.42,0,0,0-2.63-1A17,17,0,0,0,15.11,77a13.48,13.48,0,0,0,3.28,8.56A25.84,25.84,0,0,1,2.83,61.88c0-5.48,1.25-9.35,2.58-13.45,1.61-5,3.27-10.14,2.4-18.1a21.78,21.78,0,0,1,7.3,16.43,1.42,1.42,0,0,0,2.39,1c.58-.55,3.42-4.12,2.05-20.8-.63-7.69,1.34-14.1,5.83-19a23,23,0,0,1,4.37-3.73,38,38,0,0,0,2.91,23.87,39.92,39.92,0,0,0,7.05,10.6,1.41,1.41,0,0,0,2.33-.5c2.6-6.93,6.34-10.14,8.86-11.58-1.6,5.89-.23,12.17,1.21,18.77,1.13,5.21,2.3,10.6,2.3,16.5A25.81,25.81,0,0,1,39.18,85.4Z"/><path d="M27.05,61c-2.92-3.41-5.64-3.52-6-3.52a1.41,1.41,0,0,0-1.42,1.41,18.94,18.94,0,0,1-.78,5.64,1.42,1.42,0,0,0,.95,1.77,1.41,1.41,0,0,0,1.76-1,20.78,20.78,0,0,0,.84-4.57l.08,0a10.08,10.08,0,0,1,3.43,3.39,1.41,1.41,0,0,0,2.18.22c.22-.21,2.09-2.19,3.11-6.74A1.4,1.4,0,0,0,30.15,56,1.42,1.42,0,0,0,28.46,57,15.44,15.44,0,0,1,27.05,61Z"/></g></g></svg>