<svg xmlns="http://www.w3.org/2000/svg" viewBox="0 0 54.54 93.5"><defs><style>.cls-1{fill:#303c42;}.cls-2{fill:#b24399;}.cls-3{fill:#fff;opacity:0.2;isolation:isolate;}</style></defs><title>Asset 18</title><g id="Layer_2" data-name="Layer 2"><g id="Layer_1-2" data-name="Layer 1"><path class="cls-1" d="M54.54,27.27A27.27,27.27,0,0,0,0,27.27c0,13,9.75,31.81,23.68,34.66L19.87,67a1.95,1.95,0,0,0,1.56,3.12h3.72A5.5,5.5,0,0,1,23.8,72.8c-1.06,1.33-2.37,3-2.37,7.06s1.31,5.74,2.37,7.07c.89,1.1,1.52,1.9,1.52,4.62a1.95,1.95,0,1,0,3.9,0c0-4.09-1.32-5.74-2.38-7.06-.88-1.1-1.52-1.9-1.52-4.63s.64-3.52,1.52-4.62a9.23,9.23,0,0,0,2.25-5.11h4a2,2,0,0,0,1.75-1.08,1.93,1.93,0,0,0-.19-2l-3.81-5.08C44.79,59.08,54.54,40.29,54.54,27.27Z"/><polygon class="cls-2" points="25.32 66.23 27.27 63.63 29.22 66.23 25.32 66.23"/><path class="cls-2" d="M27.27,58.44C14.9,58.44,3.9,41,3.9,27.27a23.38,23.38,0,0,1,46.75,0C50.65,41,39.64,58.44,27.27,58.44Z"/><path class="cls-3" d="M9.74,33.11A23.35,23.35,0,0,1,46.45,13.94,23.36,23.36,0,0,0,3.9,27.27c0,10,5.79,21.83,13.69,27.62C12.84,48.68,9.74,40.39,9.74,33.11Z"/></g></g></svg>