<svg xmlns="http://www.w3.org/2000/svg" viewBox="0 0 70 70"><defs><style>.cls-1{fill:#037c6d;}.cls-2{fill:#444;}</style></defs><title>Asset 12</title><g id="Layer_2" data-name="Layer 2"><g id="Layer_1-2" data-name="Layer 1"><path class="cls-1" d="M55.29,15.61C51.72-.45,32.1,1.34,32.1,1.34h2.68L24.08,3.12l-8.92,10.7-1.78,10.7,3.56,11.59L25.86,48.6,34.78,62,48.16,43.25S58.86,31.66,55.29,15.61ZM35.23,29a6.69,6.69,0,1,1,6.68-6.69A6.68,6.68,0,0,1,35.23,29Z"/><path class="cls-2" d="M35,30.33a8.17,8.17,0,1,0-8.17-8.16A8.17,8.17,0,0,0,35,30.33Zm0-14a5.84,5.84,0,1,1-5.83,5.84A5.84,5.84,0,0,1,35,16.33Z"/><path class="cls-2" d="M34.79,63.88,52.69,38c6.71-9,5.75-23.66-2.08-31.47A22.36,22.36,0,0,0,19,6.55c-7.83,7.82-8.8,22.53-2.11,31.45ZM20.62,8.2A20.06,20.06,0,0,1,49,8.2C56,15.26,56.89,28.55,50.8,36.67l-16,23.12-16-23.16c-6.06-8.08-5.2-21.37,1.86-28.43Z"/><path class="cls-2" d="M49.14,50.18a1.16,1.16,0,1,0-.27,2.31c12.26,1.44,18.79,5.34,18.79,7.59,0,3.17-12.42,7.58-32.66,7.58S2.34,63.25,2.34,60.08c0-2.25,6.53-6.15,18.79-7.59a1.16,1.16,0,1,0-.27-2.31C8.58,51.62,0,55.7,0,60.08,0,65,12,70,35,70s35-5,35-9.92c0-4.38-8.58-8.46-20.86-9.9Z"/></g></g></svg>