<?xml version="1.0" encoding="iso-8859-1"?>
<!-- Generator: Adobe Illustrator 16.0.0, SVG Export Plug-In . SVG Version: 6.00 Build 0)  -->
<!DOCTYPE svg PUBLIC "-//W3C//DTD SVG 1.1//EN" "http://www.w3.org/Graphics/SVG/1.1/DTD/svg11.dtd">
<svg version="1.1" id="Capa_1" xmlns="http://www.w3.org/2000/svg" xmlns:xlink="http://www.w3.org/1999/xlink" x="0px" y="0px"
	 width="542.962px" height="542.961px" viewBox="0 0 542.962 542.961" style="enable-background:new 0 0 542.962 542.961;"
	 xml:space="preserve">
<g>
	<g>
		<path d="M101.02,154.261l135.577,332.23c5.862,14.382,22.357,21.315,36.739,15.443l161.578-65.942
			c14.382-5.871,21.305-22.357,15.424-36.739L314.761,67.031c-5.861-14.391-22.356-21.324-36.739-15.443l-161.567,65.943
			C102.062,123.402,95.158,139.879,101.02,154.261z M282.182,61.791c8.759-3.566,18.81,0.65,22.376,9.4l135.577,332.23
			c3.586,8.76-0.631,18.8-9.391,22.367l-161.577,65.942c-8.759,3.577-18.791-0.641-22.376-9.399l-135.577-332.24
			c-3.567-8.75,0.631-18.79,9.39-22.357L282.182,61.791z"/>
		<path d="M251.629,458.033l168.051-68.582c1.425-0.583,2.095-2.189,1.511-3.596L302.167,94.189
			c-0.583-1.406-2.189-2.075-3.586-1.501L130.53,161.279c-1.425,0.574-2.094,2.181-1.511,3.586l119.024,291.657
			C248.627,457.937,250.224,458.617,251.629,458.033z M301.728,107.682l109.71,268.86c1.999,4.887-0.354,10.471-5.24,12.47
			l-145.245,59.277c-4.886,1.999-10.471-0.354-12.469-5.24l-109.71-268.859c-1.999-4.887,0.354-10.471,5.24-12.47l145.245-59.278
			C294.153,100.443,299.729,102.786,301.728,107.682z"/>
		<path d="M193.881,117.302l28.668-11.714c1.415-0.583,2.094-2.19,1.511-3.586c-0.574-1.415-2.18-2.084-3.586-1.511l-28.688,11.714
			c-1.396,0.574-2.075,2.18-1.511,3.586C190.85,117.196,192.457,117.875,193.881,117.302z"/>
		<path d="M368.139,430.053c-2.467-6.034-9.371-8.941-15.405-6.483l-29.376,11.991c-6.034,2.468-8.95,9.371-6.483,15.396l0.727,1.76
			c2.448,6.034,9.362,8.941,15.405,6.483l29.357-11.991c6.034-2.468,8.95-9.371,6.483-15.405L368.139,430.053z M360.288,442.112
			l-29.376,11.991c-3.213,1.31-6.914-0.239-8.214-3.462l-0.728-1.76c-1.31-3.213,0.239-6.903,3.472-8.214l29.376-11.991
			c3.213-1.311,6.914,0.239,8.214,3.452l0.708,1.76C365.05,437.101,363.521,440.792,360.288,442.112z"/>
		<path d="M153.614,60.261c1.348-1.368,2.075-3.165,2.056-5.068c0-0.852-0.153-1.693-0.45-2.477
			c-1.042-2.811-3.758-4.667-6.742-4.657C91.161,48.356,44.745,95.222,45.041,152.54c0.019,3.854,3.366,7.153,7.21,7.143
			c1.903-0.019,3.701-0.765,5.058-2.132c1.349-1.358,2.075-3.166,2.075-5.078c-0.258-49.419,39.742-89.83,89.161-90.079
			C150.477,62.394,152.266,61.638,153.614,60.261z"/>
		<path d="M158.137,17.268c3.94-0.019,7.134-3.242,7.134-7.219c-0.019-0.842-0.172-1.674-0.469-2.467
			c-1.042-2.792-3.749-4.667-6.761-4.647C70.468,3.364-0.429,74.997,0.002,162.609c0.019,3.873,3.375,7.133,7.229,7.124
			c1.903-0.01,3.701-0.765,5.04-2.132c1.348-1.358,2.094-3.166,2.075-5.068C13.944,82.838,78.443,17.68,158.137,17.268z"/>
		<path d="M435.65,481.461c-1.76,0.812-3.061,2.257-3.701,4.073c-0.631,1.817-0.525,3.749,0.277,5.47
			c0.373,0.765,0.86,1.454,1.473,2.047c2.133,2.104,5.374,2.629,8.09,1.357c51.771-24.595,73.909-86.703,49.323-138.493
			c-1.645-3.481-6.091-5.05-9.562-3.414c-1.721,0.832-3.021,2.267-3.682,4.083c-0.631,1.798-0.545,3.748,0.277,5.479
			C499.355,406.711,480.288,460.261,435.65,481.461z"/>
		<path d="M518.069,324.301c-1.722,0.822-3.021,2.267-3.662,4.083c-0.65,1.798-0.564,3.749,0.277,5.461
			c34.157,71.996,3.395,158.364-68.583,192.541c-3.566,1.692-5.077,5.967-3.404,9.571c0.373,0.756,0.861,1.435,1.454,2.037
			c2.151,2.085,5.393,2.63,8.108,1.339c79.12-37.533,112.924-132.479,75.362-211.638
			C525.987,324.187,521.55,322.657,518.069,324.301z"/>
	</g>
</g>
<g>
</g>
<g>
</g>
<g>
</g>
<g>
</g>
<g>
</g>
<g>
</g>
<g>
</g>
<g>
</g>
<g>
</g>
<g>
</g>
<g>
</g>
<g>
</g>
<g>
</g>
<g>
</g>
<g>
</g>
</svg>
