<?xml version="1.0" encoding="iso-8859-1"?>
<!-- Generator: Adobe Illustrator 16.0.0, SVG Export Plug-In . SVG Version: 6.00 Build 0)  -->
<!DOCTYPE svg PUBLIC "-//W3C//DTD SVG 1.1//EN" "http://www.w3.org/Graphics/SVG/1.1/DTD/svg11.dtd">
<svg version="1.1" id="Capa_1" xmlns="http://www.w3.org/2000/svg" xmlns:xlink="http://www.w3.org/1999/xlink" x="0px" y="0px"
	 width="567.34px" height="567.34px" viewBox="0 0 567.34 567.34" style="enable-background:new 0 0 567.34 567.34;"
	 xml:space="preserve">
<g>
	<path d="M90.948,151.822l144.843,360.754c6.235,15.539,23.868,23.084,39.407,16.83l189.118-75.927
		c15.539-6.234,23.074-23.887,16.84-39.416L336.303,53.299c-6.234-15.539-23.887-23.074-39.426-16.84l-189.118,75.936
		C92.23,118.64,84.714,136.283,90.948,151.822z M362.399,474.46c-9.792,3.939-20.904-0.794-24.834-10.586
		c-3.921-9.772,0.822-20.884,10.614-24.814c9.764-3.921,20.885,0.812,24.805,10.596C376.905,459.447,372.162,470.539,362.399,474.46
		z M143.973,151.755l153.966-61.812c4.274-1.722,9.132,0.344,10.863,4.628L420.31,372.294c1.722,4.274-0.363,9.142-4.638,10.854
		L261.716,444.96c-4.284,1.711-9.142-0.363-10.854-4.638L139.363,162.599C137.633,158.324,139.698,153.466,143.973,151.755z"/>
	<path d="M127.334,82.35c-0.105-1.014-0.325-1.989-0.708-2.936c-1.721-4.274-6.139-6.942-10.738-6.512
		c-44.6,4.341-77.38,44.122-73.058,88.75c0.545,5.604,5.852,9.955,11.465,9.419c2.792-0.268,5.317-1.616,7.086-3.768
		c1.797-2.18,2.61-4.915,2.333-7.688c-1.549-15.979,3.232-31.681,13.464-44.112c10.261-12.46,24.71-20.177,40.708-21.707
		C123.633,93.242,127.869,88.116,127.334,82.35z"/>
	<path d="M111.718,52.601c5.737-0.564,9.974-5.689,9.41-11.437c-0.086-1.004-0.316-1.979-0.698-2.917
		c-1.712-4.284-6.12-6.952-10.739-6.512c-32.235,3.127-61.334,18.637-81.97,43.72c-20.617,25.073-30.285,56.62-27.138,88.883
		c0.583,5.584,5.871,9.926,11.427,9.4c2.792-0.268,5.316-1.597,7.085-3.758c1.788-2.171,2.63-4.887,2.353-7.688
		C16.112,107.155,56.59,57.956,111.718,52.601z"/>
	<path d="M450.174,487.81c0.238,0.994,0.611,1.922,1.128,2.802c2.314,3.978,7.076,5.977,11.57,4.886
		c43.51-10.729,70.208-54.821,59.488-98.359c-1.348-5.46-7.22-8.998-12.708-7.659c-2.716,0.669-5.021,2.371-6.465,4.752
		c-1.463,2.42-1.864,5.24-1.204,7.956c3.834,15.587,1.386,31.805-6.972,45.594c-8.348,13.799-21.544,23.524-37.141,27.349
		C452.258,476.506,448.815,482.196,450.174,487.81z"/>
	<path d="M551.125,380.757c-2.726,0.67-5.011,2.353-6.493,4.743c-1.444,2.41-1.894,5.221-1.224,7.956
		c13.263,53.779-19.719,108.295-73.488,121.529c-5.604,1.396-9.046,7.077-7.679,12.699c0.22,0.985,0.593,1.903,1.1,2.783
		c2.324,3.978,7.086,5.985,11.59,4.886c31.432-7.745,57.996-27.291,74.808-55.08c16.792-27.778,21.793-60.387,14.037-91.866
		C562.408,382.976,556.547,379.438,551.125,380.757z"/>
</g>
<g>
</g>
<g>
</g>
<g>
</g>
<g>
</g>
<g>
</g>
<g>
</g>
<g>
</g>
<g>
</g>
<g>
</g>
<g>
</g>
<g>
</g>
<g>
</g>
<g>
</g>
<g>
</g>
<g>
</g>
</svg>
