<svg xmlns="http://www.w3.org/2000/svg" viewBox="0 0 40.16 37.17"><defs><style>.cls-1{fill:#efefef;}</style></defs><title>Asset 11</title><g id="Layer_2" data-name="Layer 2"><g id="Layer_1-2" data-name="Layer 1"><path class="cls-1" d="M.2.15A.61.61,0,0,0,0,.78l10.2,32.49a.58.58,0,0,0,.33.37.62.62,0,0,0,.5,0l7.24-3.46L24.15,37a.6.6,0,0,0,.45.21.63.63,0,0,0,.19,0,.6.6,0,0,0,.41-.53L26,25.7a.6.6,0,0,0-.17-.46L14.46,13.58l14.71,10a.6.6,0,0,0,.63.06l10-4.41a.6.6,0,0,0,.34-.54.58.58,0,0,0-.35-.54L.85.06A.6.6,0,0,0,.2.15Z"/></g></g></svg>